<?xml version="1.0" encoding="UTF-8"?>
<svg width="187.642474px" height="77.2789759px" viewBox="0 0 187.642474 77.2789759" version="1.1" xmlns="http://www.w3.org/2000/svg" xmlns:xlink="http://www.w3.org/1999/xlink">
    <title>ic_logo</title>
    <g id="页面-1" stroke="none" stroke-width="1" fill="none" fill-rule="evenodd">
        <g id="Pho.Website" transform="translate(-165.354808, -89.360512)">
            <g id="ic_logo" transform="translate(160.000000, 88.000000)">
                <g id="编组" transform="translate(-0.000000, 0.000000)">
                    <path d="M44.3622497,2.53852028 L70.1945669,17.4644467 C72.9101888,19.0335345 74.5828518,21.9318015 74.5828518,25.0681432 L74.5828518,54.9318568 C74.5828518,58.0681985 72.9101888,60.9664655 70.1945669,62.5355533 L44.3622497,77.4614797 C41.6438761,79.0321574 38.2937835,79.0321574 35.57541,77.4614797 L9.74309278,62.5355533 C7.0274708,60.9664655 5.35480784,58.0681985 5.35480784,54.9318568 L5.35480784,25.0681432 C5.35480784,21.9318015 7.0274708,19.0335345 9.74309278,17.4644467 L35.57541,2.53852028 C38.2937835,0.967842618 41.6438761,0.967842618 44.3622497,2.53852028 Z" id="多边形" fill="#0A0A3D"></path>
                    <path d="M51.1601022,11.3 C57.7823547,11.3 63.1507511,16.672583 63.1507511,23.3 C63.1507511,24.0478258 63.0823982,24.7796744 62.9516038,25.48963 L62.950907,42.8 C62.950907,49.6506309 58.6488279,55.4956738 52.600916,57.7768891 L37.7024552,66.2408065 C35.7798004,67.5400225 33.4665037,68.3 30.9758431,68.3 C24.3535906,68.3 18.9851942,62.927417 18.9851942,56.3 C18.9851942,49.672583 24.3535906,44.3 30.9758431,44.3 L31.0452892,44.3012131 C30.9993356,43.8069882 30.9758431,43.3062397 30.9758431,42.8 C30.9758431,36.3642755 34.7725943,30.8160213 40.2467437,28.2762431 C39.5547582,26.7609668 39.1694532,25.0755149 39.1694532,23.3 C39.1694532,16.672583 44.5378496,11.3 51.1601022,11.3 Z" id="形状结合" fill="#02FED1" opacity="0.640492031" style="mix-blend-mode: lighten;"></path>
                    <path d="M41.1678947,6.3 C47.7901473,6.3 53.1585437,11.672583 53.1585437,18.3 C53.1585437,19.0478258 53.0901908,19.7796744 52.9593964,20.48963 L52.9586995,37.8 C52.9586995,44.6506309 48.6566205,50.4956738 42.6087085,52.7768891 L27.7102478,61.2408065 C25.7875929,62.5400225 23.4742963,63.3 20.9836357,63.3 C14.3613831,63.3 8.99298671,57.927417 8.99298671,51.3 C8.99298671,44.672583 14.3613831,39.3 20.9836357,39.3 L21.0530817,39.3012131 C21.0071282,38.8069882 20.9836357,38.3062397 20.9836357,37.8 C20.9836357,31.3642755 24.7803868,25.8160213 30.2545362,23.2762431 C29.5625507,21.7609668 29.1772458,20.0755149 29.1772458,18.3 C29.1772458,11.672583 34.5456422,6.3 41.1678947,6.3 Z" id="形状结合" fill="#02FED1" opacity="0.324090867"></path>
                    <path d="M60.1530889,17.3 C66.7753414,17.3 72.1437378,22.672583 72.1437378,29.3 C72.1437378,30.0478258 72.0753849,30.7796744 71.9445906,31.48963 L71.9438937,48.8 C71.9438937,55.6506309 67.6418146,61.4956738 61.5939027,63.7768891 L46.6954419,72.2408065 C44.7727871,73.5400225 42.4594904,74.3 39.9688298,74.3 C33.3465773,74.3 27.9781809,68.927417 27.9781809,62.3 C27.9781809,55.672583 33.3465773,50.3 39.9688298,50.3 L40.0382759,50.3012131 C39.9923223,49.8069882 39.9688298,49.3062397 39.9688298,48.8 C39.9688298,42.3642755 43.765581,36.8160213 49.2397304,34.2762431 C48.5477449,32.7609668 48.1624399,31.0755149 48.1624399,29.3 C48.1624399,22.672583 53.5308363,17.3 60.1530889,17.3 Z" id="形状结合" fill="#02FED1"></path>
                </g>
                <text id="Pho" font-family="PingFangSC-Medium, PingFang SC" font-size="53.2224532" font-weight="400" fill="#FFFFFF">
                    <tspan x="95.9972818" y="58.743994">Pho</tspan>
                </text>
            </g>
        </g>
    </g>
</svg>