<?xml version="1.0" encoding="UTF-8"?>
<svg width="272.780414px" height="61.8229531px" viewBox="0 0 272.780414 61.8229531" version="1.1" xmlns="http://www.w3.org/2000/svg" xmlns:xlink="http://www.w3.org/1999/xlink">
    <title>编组 3</title>
    <g id="页面-1" stroke="none" stroke-width="1" fill="none" fill-rule="evenodd">
        <g id="pho.cloud" transform="translate(-164.283606, -29.088523)">
            <g id="编组-3" transform="translate(160.000000, 28.000000)">
                <g id="编组" transform="translate(0.000000, 0.000000)">
                    <path d="M35.4881555,2.03101537 L56.1524574,13.971529 C58.3248717,15.2268215 59.6629377,17.5453885 59.6629377,20.0544009 L59.6629377,43.9455991 C59.6629377,46.4546115 58.3248717,48.7731785 56.1524574,50.028471 L35.4881555,61.9689846 C33.3133816,63.2256405 30.6331622,63.2256405 28.4583884,61.9689846 L7.79408648,50.028471 C5.62167213,48.7731785 4.2836062,46.4546115 4.2836062,43.9455991 L4.2836062,20.0544009 C4.2836062,17.5453885 5.62167213,15.2268215 7.79408648,13.971529 L28.4583884,2.03101537 C30.6331622,0.77435947 33.3133816,0.77435947 35.4881555,2.03101537 Z" id="多边形" fill="#0A0A3D"></path>
                    <path d="M40.9257881,9.04 C46.2232932,9.04 50.5177696,13.3380664 50.5177696,18.64 C50.5177696,19.2378597 50.4631637,19.8229549 50.358671,20.3905622 L50.3579033,34.24 C50.3579033,39.7180126 46.9195621,44.3922862 42.0849737,46.2190199 L30.1602739,52.9926452 C28.6217688,54.0321715 26.771451,54.64 24.7792857,54.64 C19.4817806,54.64 15.1873042,50.3419336 15.1873042,45.04 C15.1873042,39.7380664 19.4817806,35.44 24.7792857,35.44 L24.8348542,35.4411294 C24.7980837,35.0456979 24.7792857,34.645046 24.7792857,34.24 C24.7792857,29.0915501 27.8163634,24.6530407 32.1952596,22.6211481 C31.6420332,21.4087735 31.3338065,20.0604119 31.3338065,18.64 C31.3338065,13.3380664 35.6282829,9.04 40.9257881,9.04 Z" id="形状结合" fill="#02FED1" opacity="0.640492031" style="mix-blend-mode: lighten;"></path>
                    <path d="M32.9324701,5.04 C38.2299752,5.04 42.5244517,9.3380664 42.5244517,14.64 C42.5244517,15.2378597 42.4698457,15.8229549 42.365353,16.3905622 L42.3645853,30.24 C42.3645853,35.7180126 38.9262441,40.3922862 34.0916557,42.2190199 L22.1669559,48.9926452 C20.6284509,50.0321715 18.778133,50.64 16.7859678,50.64 C11.4884626,50.64 7.19398618,46.3419336 7.19398618,41.04 C7.19398618,35.7380664 11.4884626,31.44 16.7859678,31.44 L16.8415363,31.4411294 C16.8047658,31.0456979 16.7859678,30.645046 16.7859678,30.24 C16.7859678,25.0915501 19.8230454,20.6530407 24.2019416,18.6211481 C23.6487152,17.4087735 23.3404885,16.0604119 23.3404885,14.64 C23.3404885,9.3380664 27.6349649,5.04 32.9324701,5.04 Z" id="形状结合" fill="#02FED1" opacity="0.324090867"></path>
                    <path d="M48.1197742,13.84 C53.4172794,13.84 57.7117558,18.1380664 57.7117558,23.44 C57.7117558,24.0378597 57.6571498,24.6229549 57.5526572,25.1905622 L57.5518895,39.04 C57.5518895,44.5180126 54.1135483,49.1922862 49.2789598,51.0190199 L37.35426,57.7926452 C35.815755,58.8321715 33.9654372,59.44 31.9732719,59.44 C26.6757668,59.44 22.3812903,55.1419336 22.3812903,49.84 C22.3812903,44.5380664 26.6757668,40.24 31.9732719,40.24 L32.0288404,40.2411294 C31.9920699,39.8456979 31.9732719,39.445046 31.9732719,39.04 C31.9732719,33.8915501 35.0103496,29.4530407 39.3892457,27.4211481 C38.8360194,26.2087735 38.5277927,24.8604119 38.5277927,23.44 C38.5277927,18.1380664 42.8222691,13.84 48.1197742,13.84 Z" id="形状结合" fill="#02FED1"></path>
                </g>
                <text id="Pho." font-family="PingFangSC-Medium, PingFang SC" font-size="42.5779626" font-weight="400" fill="#FFFFFF">
                    <tspan x="76.7913472" y="47.1951952">Pho.</tspan>
                </text>
                <text id="Cloud" font-family="PingFangSC-Thin, PingFang SC" font-size="42.5779626" font-weight="300" fill="#FFFFFF">
                    <tspan x="166.06402" y="47.1951952">Cloud</tspan>
                </text>
            </g>
        </g>
    </g>
</svg>